Coordinates
version=1
nRows=36
nColumns=30
inDegrees=yes

Units are S.I. units (second, meters, Newtons, ...)
Angles are in degrees.

endheader
time	floatyaw	floatroll	floatpitch	floatx	floaty	floatz	pro_sup_l	deviation_l	flexion_l	cmc_flexion_l	cmc_abduction_l	mp_flexion_l	ip_flexion_l	2mcp_flexion_l	2mcp_abduction_l	2pm_flexion_l	2md_flexion_l	3mcp_flexion_l	3mcp_abduction_l	3pm_flexion_l	3md_flexion_l	4mcp_flexion_l	4mcp_abduction_l	4pm_flexion_l	4md_flexion_l	5mcp_flexion_l	5mcp_abduction_l	5pm_flexion_l	5md_flexion_l
-0.995000	-160.147433	-5.066637	-73.570646	0.079488	-0.181762	-0.016543	100.389161	4.815143	-0.171428	14.600369	12.285073	-25.817170	-42.308235	30.002488	6.821414	43.529823	29.709079	24.475073	4.164144	45.274481	29.830225	13.434894	-4.155076	52.535091	36.399983	0.925551	-8.467247	62.162749	43.597146
-0.985000	-160.147433	-5.066637	-73.570646	0.079456	-0.181781	-0.016601	100.362060	4.798489	-0.175123	14.574774	12.260366	-25.841704	-42.304327	30.009240	6.823455	43.544833	29.715657	24.473793	4.166566	45.288596	29.837923	13.432988	-4.152715	52.529713	36.393377	0.917754	-8.478855	62.186070	43.606920
-0.975000	-160.147433	-5.066637	-73.570646	0.079428	-0.181802	-0.016654	100.344249	4.784608	-0.180370	14.556038	12.234582	-25.864935	-42.304122	30.013583	6.828054	43.574066	29.733595	24.475187	4.167385	45.316979	29.853480	13.425287	-4.152690	52.541121	36.398241	0.909159	-8.485810	62.217728	43.621189
-0.965000	-160.147433	-5.066637	-73.570646	0.079403	-0.181818	-0.016699	100.336349	4.777200	-0.184115	14.547249	12.212901	-25.882103	-42.309301	30.017079	6.834861	43.609734	29.756262	24.481221	4.165788	45.355662	29.873292	13.413282	-4.154122	52.565713	36.412997	0.903191	-8.486383	62.247839	43.635094
-0.955000	-160.147433	-5.066637	-73.570646	0.079384	-0.181827	-0.016732	100.336333	4.777580	-0.184523	14.547880	12.200468	-25.889931	-42.319681	30.023461	6.842509	43.644357	29.776147	24.492972	4.161919	45.397853	29.892095	13.401123	-4.155436	52.594343	36.432069	0.904843	-8.481733	62.266884	43.643886
-0.945000	-160.147433	-5.066637	-73.570646	0.079371	-0.181828	-0.016757	100.341300	4.784651	-0.181841	14.553823	12.199684	-25.887438	-42.332606	30.036654	6.849454	43.672380	29.787363	24.509735	4.157054	45.435221	29.904546	13.394265	-4.155445	52.616371	36.448758	0.918480	-8.474921	62.269475	43.645132
-0.935000	-160.147433	-5.066637	-73.570646	0.079363	-0.181824	-0.016775	100.349104	4.795922	-0.178002	14.558773	12.208168	-25.875729	-42.343095	30.058119	6.854901	43.690821	29.787421	24.528703	4.153177	45.460445	29.907279	13.396573	-4.154135	52.624774	36.458646	0.945486	-8.469228	62.256157	43.639772
-0.925000	-160.147433	-5.066637	-73.570646	0.079358	-0.181819	-0.016791	100.358483	4.808607	-0.175170	14.556376	12.219312	-25.857389	-42.345676	30.085430	6.859102	43.698902	29.777377	24.545650	4.152085	45.469688	29.900153	13.407458	-4.152621	52.619558	36.461614	0.982789	-8.466907	62.232565	43.631482
-0.915000	-160.147433	-5.066637	-73.570646	0.079354	-0.181814	-0.016806	100.367740	4.820067	-0.174210	14.542353	12.225641	-25.835984	-42.337744	30.113372	6.862797	43.697027	29.760385	24.556719	4.154513	45.463286	29.885680	13.421150	-4.152354	52.607452	36.461371	1.023063	-8.468826	62.206924	43.624910
-0.905000	-160.147433	-5.066637	-73.570646	0.079350	-0.181812	-0.016820	100.373379	4.827723	-0.174112	14.515888	12.223605	-25.815630	-42.322510	30.136981	6.866313	43.685945	29.739700	24.560501	4.159755	45.444462	29.867105	13.429108	-4.154163	52.598169	36.462980	1.056921	-8.474767	62.187372	43.623827
-0.895000	-160.147433	-5.066637	-73.570646	0.079346	-0.181812	-0.016830	100.370269	4.829075	-0.172728	14.479763	12.217268	-25.800222	-42.308907	30.154390	6.869138	43.666770	29.717539	24.559039	4.165974	45.417713	29.846884	13.424447	-4.157748	52.599442	36.470017	1.076569	-8.483811	62.179762	43.629902
-0.885000	-160.147433	-5.066637	-73.570646	0.079341	-0.181814	-0.016835	100.353785	4.822378	-0.168219	14.439134	12.218015	-25.792227	-42.307392	30.167385	6.870352	43.641735	29.695330	24.556814	4.170960	45.388404	29.826857	13.405795	-4.161807	52.613348	36.482882	1.079386	-8.494590	62.186025	43.642250
-0.875000	-160.147433	-5.066637	-73.570646	0.079337	-0.181817	-0.016835	100.322820	4.807756	-0.160245	14.399509	12.239075	-25.791682	-42.323699	30.179315	6.869553	43.614784	29.674784	24.558158	4.172958	45.363210	29.809558	13.378267	-4.164608	52.635451	36.498754	1.069364	-8.505481	62.203556	43.657767
-0.865000	-160.147433	-5.066637	-73.570646	0.079332	-0.181819	-0.016830	100.281593	4.787926	-0.150255	14.364873	12.287409	-25.796346	-42.354785	30.192133	6.867485	43.591190	29.658571	24.564726	4.171243	45.349643	29.798817	13.351120	-4.164694	52.657054	36.512919	1.055217	-8.514874	62.226439	43.672324
-0.855000	-160.147433	-5.066637	-73.570646	0.079329	-0.181821	-0.016823	100.238717	4.767666	-0.140876	14.336832	12.358271	-25.803195	-42.390110	30.204927	6.865805	43.576225	29.649889	24.574706	4.166305	45.353629	29.798508	13.333460	-4.161496	52.669555	36.520875	1.046005	-8.521551	62.248410	43.682499
-0.845000	-160.147433	-5.066637	-73.570646	0.079326	-0.181822	-0.016814	100.203803	4.752049	-0.134692	14.315069	12.436467	-25.810319	-42.417573	30.214802	6.866120	43.573620	29.651192	24.584150	4.159609	45.376127	29.810067	13.330210	-4.155638	52.668746	36.520347	1.046684	-8.525037	62.265956	43.687061
-0.835000	-160.147433	-5.066637	-73.570646	0.079324	-0.181823	-0.016806	100.183583	4.744427	-0.132940	14.298641	12.503555	-25.817886	-42.429989	30.218969	6.868957	43.584499	29.662976	24.589316	4.153016	45.411340	29.830803	13.340190	-4.148753	52.656646	36.512267	1.056015	-8.525752	62.279600	43.687298
-0.825000	-160.147433	-5.066637	-73.570646	0.079323	-0.181825	-0.016800	100.179577	4.745262	-0.134755	14.286975	12.546187	-25.827635	-42.427926	30.216334	6.873458	43.606942	29.683314	24.588412	4.148091	45.448349	29.854498	13.357056	-4.142831	52.639859	36.500191	1.067610	-8.524769	62.292648	43.686043
-0.815000	-160.147433	-5.066637	-73.570646	0.079323	-0.181827	-0.016796	100.188031	4.752169	-0.137485	14.279558	12.560761	-25.841485	-42.417759	30.207910	6.878004	43.636048	29.708198	24.581902	4.145637	45.475725	29.874119	13.372418	-4.139422	52.625791	36.488612	1.073127	-8.523178	62.308476	43.686084
-0.805000	-160.147433	-5.066637	-73.570646	0.079324	-0.181827	-0.016795	100.201537	4.760862	-0.137971	14.274518	12.552878	-25.860182	-42.407026	30.196420	6.881283	43.664817	29.732506	24.571672	4.145636	45.486629	29.885007	13.379424	-4.139096	52.619334	36.481247	1.065917	-8.521369	62.328120	43.688897
-0.795000	-160.147433	-5.066637	-73.570646	0.079327	-0.181825	-0.016796	100.211524	4.766601	-0.134055	14.267637	12.533507	-25.882574	-42.400282	30.185592	6.883010	43.686285	29.751454	24.559873	4.147522	45.481726	29.886804	13.375083	-4.141399	52.621830	36.480089	1.043814	-8.518770	62.349461	43.694186
-0.785000	-160.147433	-5.066637	-73.570646	0.079331	-0.181822	-0.016798	100.211018	4.765832	-0.125488	14.253331	12.514743	-25.905644	-42.397654	30.179200	6.883885	43.696447	29.762218	24.548132	4.150515	45.468509	29.883221	13.360565	-4.145227	52.632131	36.485291	1.010251	-8.514288	62.368137	43.700140
-0.775000	-160.147433	-5.066637	-73.570646	0.079335	-0.181819	-0.016800	100.197013	4.757564	-0.113791	14.227480	12.506733	-25.925423	-42.396369	30.179860	6.884992	43.696252	29.764993	24.537404	4.153797	45.457386	29.879868	13.339835	-4.149341	52.648227	36.495462	0.973165	-8.507225	62.379585	43.704181
-0.765000	-160.147433	-5.066637	-73.570646	0.079338	-0.181816	-0.016800	100.171546	4.743777	-0.101308	14.190207	12.515650	-25.938645	-42.393741	30.187983	6.887178	43.691115	29.762864	24.528384	4.156540	45.456422	29.881280	13.317682	-4.152786	52.668174	36.508118	0.941869	-8.498004	62.381198	43.703988
-0.755000	-160.147433	-5.066637	-73.570646	0.079339	-0.181814	-0.016797	100.140756	4.728466	-0.090061	14.146465	12.542118	-25.944547	-42.389481	30.201601	6.890782	43.688058	29.760432	24.522131	4.157936	45.467461	29.888666	13.298108	-4.155051	52.690060	36.520219	0.923147	-8.488131	62.373651	43.698494
-0.745000	-160.147433	-5.066637	-73.570646	0.079338	-0.181812	-0.016792	100.112129	4.715665	-0.081044	14.103838	12.580349	-25.945730	-42.386033	30.217373	6.895656	43.692308	29.761860	24.520423	4.157308	45.485745	29.899510	13.283598	-4.155980	52.711579	36.528798	0.918476	-8.479417	62.360766	43.688451
-0.735000	-160.147433	-5.066637	-73.570646	0.079336	-0.181808	-0.016785	100.091271	4.707504	-0.074174	14.068916	12.619137	-25.947143	-42.386927	30.232160	6.901304	43.705392	29.769284	24.525339	4.154283	45.503245	29.909196	13.275136	-4.155568	52.729934	36.531619	0.923780	-8.472992	62.348039	43.676287
-0.725000	-160.147433	-5.066637	-73.570646	0.079332	-0.181803	-0.016780	100.080025	4.703476	-0.068699	14.044495	12.645415	-25.953267	-42.394096	30.243992	6.907120	43.725504	29.782374	24.537981	4.148951	45.513661	29.913723	13.272549	-4.153819	52.742416	36.527810	0.931854	-8.468825	62.340438	43.665272
-0.715000	-160.147433	-5.066637	-73.570646	0.079328	-0.181796	-0.016777	100.076927	4.701328	-0.063643	14.029012	12.649545	-25.964934	-42.405653	30.251905	6.912782	43.749349	29.799058	24.557033	4.141957	45.516123	29.912049	13.274877	-4.150809	52.747518	36.518322	0.936251	-8.466017	62.340414	43.658244
-0.705000	-160.147433	-5.066637	-73.570646	0.079325	-0.181788	-0.016777	100.079282	4.698876	-0.058058	14.018111	12.629908	-25.977997	-42.415693	30.255335	6.918616	43.773824	29.816702	24.578274	4.134494	45.515484	29.906745	13.280653	-4.146883	52.745953	36.505950	0.934540	-8.463585	62.347018	43.656471
-0.695000	-160.147433	-5.066637	-73.570646	0.079323	-0.181778	-0.016779	100.085092	4.695449	-0.051095	14.007046	12.594049	-25.985239	-42.416650	30.254093	6.925526	43.796511	29.832917	24.595751	4.128106	45.519249	29.902635	13.288026	-4.142767	52.740847	36.494666	0.929039	-8.461202	62.356668	43.659314
-0.685000	-160.147433	-5.066637	-73.570646	0.079323	-0.181766	-0.016780	100.093528	4.692098	-0.042105	13.992543	12.555148	-25.980677	-42.403069	30.248964	6.934314	43.815228	29.845746	24.604156	4.124239	45.533072	29.904218	13.294806	-4.139403	52.736612	36.488288	0.924544	-8.459429	62.365264	43.664963
-0.675000	-160.147433	-5.066637	-73.570646	0.079325	-0.181751	-0.016777	100.104078	4.690603	-0.030948	13.973464	12.525355	-25.963635	-42.374785	30.242100	6.944874	43.827636	29.853578	24.601257	4.123665	45.557366	29.913232	13.298762	-4.137534	52.736755	36.488904	0.924641	-8.459376	62.370459	43.671740
-0.665000	-160.147433	-5.066637	-73.570646	0.079328	-0.181736	-0.016771	100.115587	4.692153	-0.018413	13.950552	12.509865	-25.939906	-42.337962	30.236551	6.955943	43.831589	29.855146	24.589191	4.126081	45.586691	29.927488	13.298445	-4.137314	52.741756	36.495728	0.929258	-8.462031	62.372756	43.678963
-0.655000	-160.147433	-5.066637	-73.570646	0.079332	-0.181722	-0.016762	100.126239	4.696545	-0.006315	13.925804	12.505401	-25.919160	-42.303478	30.235157	6.965723	43.826057	29.849714	24.573884	4.130240	45.612130	29.941531	13.294198	-4.138188	52.748444	36.505104	0.935119	-8.467686	62.374882	43.686778
-0.645000	-160.147433	-5.066637	-73.570646	0.079336	-0.181714	-0.016754	100.134478	4.702294	0.003072	13.901840	12.503870	-25.910105	-42.283081	30.239520	6.972961	43.811960	29.837370	24.562585	4.134589	45.625501	29.948971	13.288491	-4.139156	52.751711	36.511981	0.938517	-8.475795	62.379969	43.695207
